<svg xmlns="http://www.w3.org/2000/svg" xmlns:xlink="http://www.w3.org/1999/xlink" viewBox="0,0,256,256" width="480px" height="480px" fill-rule="nonzero"><g fill="#00acc1" fill-rule="nonzero" stroke="none" stroke-width="1" stroke-linecap="butt" stroke-linejoin="miter" stroke-miterlimit="10" stroke-dasharray="" stroke-dashoffset="0" font-family="none" font-weight="none" font-size="none" text-anchor="none" style="mix-blend-mode: normal"><g transform="scale(5.33333,5.33333)"><path d="M24,9.604c-6.4,0 -10.4,3.199 -12,9.597c2.4,-3.199 5.2,-4.398 8.4,-3.599c1.826,0.456 3.131,1.781 4.576,3.247c2.352,2.387 5.075,5.151 11.024,5.151c6.4,0 10.4,-3.199 12,-9.598c-2.4,3.199 -5.2,4.399 -8.4,3.6c-1.825,-0.456 -3.13,-1.781 -4.575,-3.247c-2.353,-2.388 -5.077,-5.151 -11.025,-5.151zM12,24c-6.4,0 -10.4,3.199 -12,9.598c2.4,-3.199 5.2,-4.399 8.4,-3.599c1.825,0.457 3.13,1.781 4.575,3.246c2.353,2.388 5.077,5.152 11.025,5.152c6.4,0 10.4,-3.199 12,-9.598c-2.4,3.199 -5.2,4.399 -8.4,3.599c-1.826,-0.456 -3.131,-1.781 -4.576,-3.246c-2.352,-2.388 -5.075,-5.152 -11.024,-5.152z"></path></g></g><g fill="#000000" fill-rule="nonzero" stroke="none" stroke-width="1" stroke-linecap="butt" stroke-linejoin="miter" stroke-miterlimit="10" stroke-dasharray="" stroke-dashoffset="0" font-family="none" font-weight="none" font-size="none" text-anchor="none" style="mix-blend-mode: normal"><g><path d="M61.05667,249.38333v1.02h-9.18v-1.02c0.36,-0.14 0.76667,-0.28667 1.22,-0.44c0.45333,-0.14667 0.91,-0.25667 1.37,-0.33v0v-15.15h-3.09l-1.71,4.56h-1.09c-0.07333,-0.35333 -0.14667,-0.80667 -0.22,-1.36c-0.06667,-0.54667 -0.12667,-1.11333 -0.18,-1.7c-0.05333,-0.58667 -0.1,-1.17 -0.14,-1.75c-0.03333,-0.58 -0.05,-1.07333 -0.05,-1.48v0h16.99c0,0.42667 -0.02,0.92333 -0.06,1.49c-0.03333,0.57333 -0.07667,1.15333 -0.13,1.74c-0.05333,0.58667 -0.11667,1.15 -0.19,1.69c-0.06667,0.54 -0.13667,0.99667 -0.21,1.37v0h-1.12l-1.71,-4.56h-3.09v15.15c0.46,0.08667 0.91667,0.19333 1.37,0.32c0.45333,0.12667 0.86,0.27667 1.22,0.45zM77.10667,246.53333v0c0,0.39333 0.00333,0.73 0.01,1.01c0.01333,0.28667 0.03667,0.59 0.07,0.91v0l1.84,0.27v0.93c-0.21333,0.10667 -0.50333,0.21333 -0.87,0.32c-0.36,0.10667 -0.74,0.21 -1.14,0.31c-0.4,0.09333 -0.79667,0.17333 -1.19,0.24c-0.39333,0.06 -0.74,0.10667 -1.04,0.14v0h-0.91c-0.17333,-0.40667 -0.28,-0.81333 -0.32,-1.22c-0.03333,-0.41333 -0.06,-0.91333 -0.08,-1.5v0h-0.13c-0.08667,0.36 -0.23667,0.70333 -0.45,1.03c-0.21333,0.32667 -0.48667,0.62 -0.82,0.88c-0.32667,0.26 -0.71333,0.47 -1.16,0.63c-0.44,0.16 -0.93667,0.24 -1.49,0.24v0c-0.58667,0 -1.13,-0.09 -1.63,-0.27c-0.49333,-0.18 -0.92667,-0.43 -1.3,-0.75c-0.37333,-0.32 -0.66667,-0.70667 -0.88,-1.16c-0.21333,-0.45333 -0.32,-0.96333 -0.32,-1.53v0c0,-0.8 0.15,-1.45667 0.45,-1.97c0.3,-0.52 0.77667,-0.94333 1.43,-1.27c0.64667,-0.32667 1.48,-0.57 2.5,-0.73c1.02667,-0.16 2.26667,-0.27667 3.72,-0.35v0c0.14667,-1.52667 0.08667,-2.64667 -0.18,-3.36c-0.26667,-0.71333 -0.84667,-1.07 -1.74,-1.07v0c-0.54667,0 -1.05333,0.09 -1.52,0.27v0l-1.25,3.2h-1.17c-0.14667,-0.21333 -0.28667,-0.45667 -0.42,-0.73c-0.13333,-0.28 -0.25667,-0.57333 -0.37,-0.88c-0.11333,-0.31333 -0.21,-0.63 -0.29,-0.95c-0.08,-0.32 -0.14,-0.63 -0.18,-0.93v0c0.68,-0.46667 1.55333,-0.83333 2.62,-1.1c1.06667,-0.26667 2.19333,-0.4 3.38,-0.4v0c1.01333,0 1.84,0.11333 2.48,0.34c0.64,0.22 1.14333,0.52 1.51,0.9c0.36667,0.38667 0.62,0.83667 0.76,1.35c0.14,0.51333 0.21,1.06333 0.21,1.65v0c0,1.06667 -0.02,2.03333 -0.06,2.9c-0.04667,0.86 -0.07,1.74333 -0.07,2.65zM71.10667,248.58333v0c0.37333,0 0.69333,-0.07 0.96,-0.21c0.26667,-0.14 0.49333,-0.31 0.68,-0.51c0.18667,-0.19333 0.33,-0.40667 0.43,-0.64c0.09333,-0.22667 0.16667,-0.43 0.22,-0.61v0v-2.67c-0.83333,0.02 -1.51667,0.07333 -2.05,0.16c-0.53333,0.09333 -0.95,0.24 -1.25,0.44c-0.30667,0.20667 -0.51667,0.46667 -0.63,0.78c-0.11333,0.30667 -0.17,0.68333 -0.17,1.13v0c0,0.67333 0.16,1.19667 0.48,1.57c0.32,0.37333 0.76333,0.56 1.33,0.56zM87.61667,249.36333v1.04h-7.36v-1.04c0.26667,-0.14667 0.54,-0.26667 0.82,-0.36c0.28667,-0.1 0.6,-0.19333 0.94,-0.28v0v-9.76l-1.76,-0.22v-1.04c0.26667,-0.10667 0.6,-0.21333 1,-0.32c0.4,-0.10667 0.82,-0.2 1.26,-0.28c0.44667,-0.08 0.88333,-0.15 1.31,-0.21c0.42667,-0.06 0.8,-0.11 1.12,-0.15v0h0.91v11.98c0.35333,0.08667 0.67333,0.18 0.96,0.28c0.28,0.09333 0.54667,0.21333 0.8,0.36zM81.55667,232.69333v0c0,-0.62 0.21333,-1.11 0.64,-1.47c0.42667,-0.35333 0.98,-0.53 1.66,-0.53v0c0.67333,0 1.22333,0.17667 1.65,0.53c0.42667,0.36 0.64,0.85 0.64,1.47v0c0,0.60667 -0.21333,1.08667 -0.64,1.44c-0.42667,0.35333 -0.97667,0.53 -1.65,0.53v0c-0.68,0 -1.23333,-0.17667 -1.66,-0.53c-0.42667,-0.35333 -0.64,-0.83333 -0.64,-1.44zM96.46667,249.36333v1.04h-7.36v-1.04c0.58667,-0.28667 1.17333,-0.5 1.76,-0.64v0v-16.16l-2.03,-0.22v-1.04c0.23333,-0.10667 0.55333,-0.21333 0.96,-0.32c0.41333,-0.10667 0.85333,-0.2 1.32,-0.28c0.47333,-0.08 0.94667,-0.15 1.42,-0.21c0.46667,-0.06 0.88667,-0.11 1.26,-0.15v0h0.91v18.38c0.58667,0.14 1.17333,0.35333 1.76,0.64zM104.94667,250.40333l-2.48,0.32l-4.19,-11.98c-0.24667,-0.08667 -0.49,-0.18 -0.73,-0.28c-0.24,-0.09333 -0.46667,-0.21333 -0.68,-0.36v0v-1.04h6.75v1.02c-0.25333,0.14 -0.50333,0.26667 -0.75,0.38c-0.24667,0.12 -0.50333,0.21333 -0.77,0.28v0l1.84,6.83l0.34,2.05h0.06l0.48,-2.13l2.82,-8.27l1.31,-0.16l3.04,8.46l0.56,2.1h0.05l0.43,-2.08l1.6,-6.8c-0.19333,-0.03333 -0.42,-0.10333 -0.68,-0.21c-0.26,-0.10667 -0.52333,-0.25 -0.79,-0.43v0v-1.04h5.15v1.04c-0.37333,0.25333 -0.88,0.46667 -1.52,0.64v0l-3.71,11.66l-2.5,0.32l-2.3,-6.59l-0.5,-2.21h-0.08l-0.62,2.21zM126.22667,249.36333v1.04h-7.36v-1.04c0.26667,-0.14667 0.54333,-0.26667 0.83,-0.36c0.28,-0.1 0.59,-0.19333 0.93,-0.28v0v-9.76l-1.76,-0.22v-1.04c0.26667,-0.10667 0.6,-0.21333 1,-0.32c0.4,-0.10667 0.82333,-0.2 1.27,-0.28c0.44,-0.08 0.87333,-0.15 1.3,-0.21c0.42667,-0.06 0.8,-0.11 1.12,-0.15v0h0.91v11.98c0.35333,0.08667 0.67333,0.18 0.96,0.28c0.28667,0.09333 0.55333,0.21333 0.8,0.36zM120.17667,232.69333v0c0,-0.62 0.21333,-1.11 0.64,-1.47c0.42667,-0.35333 0.97667,-0.53 1.65,-0.53v0c0.67333,0 1.22333,0.17667 1.65,0.53c0.42667,0.36 0.64,0.85 0.64,1.47v0c0,0.60667 -0.21333,1.08667 -0.64,1.44c-0.42667,0.35333 -0.97667,0.53 -1.65,0.53v0c-0.67333,0 -1.22333,-0.17667 -1.65,-0.53c-0.42667,-0.35333 -0.64,-0.83333 -0.64,-1.44zM143.74667,249.36333v1.04h-7.07v-1.04c0.23333,-0.12667 0.46,-0.24 0.68,-0.34c0.22667,-0.09333 0.49,-0.19333 0.79,-0.3v0v-6.27c0,-1.12 -0.16,-1.99667 -0.48,-2.63c-0.32,-0.62667 -0.89,-0.94 -1.71,-0.94v0c-0.67333,0 -1.25333,0.21667 -1.74,0.65c-0.49333,0.43333 -0.86333,1.02333 -1.11,1.77v0v7.42c0.28667,0.06667 0.54,0.15 0.76,0.25c0.22,0.1 0.45667,0.23 0.71,0.39v0v1.04h-7.07v-1.04c0.44667,-0.23333 1.03333,-0.44667 1.76,-0.64v0v-9.76l-1.76,-0.22v-1.04c0.23333,-0.10667 0.53667,-0.20667 0.91,-0.3c0.37333,-0.1 0.77667,-0.19333 1.21,-0.28c0.43333,-0.09333 0.87667,-0.17 1.33,-0.23c0.45333,-0.06 0.86667,-0.11 1.24,-0.15v0h0.91v2.75h0.03c0.37333,-0.74667 0.93333,-1.39 1.68,-1.93c0.74667,-0.54667 1.65333,-0.82 2.72,-0.82v0c0.69333,0 1.31333,0.08667 1.86,0.26c0.55333,0.16667 1.02,0.46333 1.4,0.89c0.38667,0.42667 0.68,1 0.88,1.72c0.20667,0.72 0.31,1.63 0.31,2.73v0v6.38c0.71333,0.12 1.3,0.33333 1.76,0.64zM154.09667,247.76333h-0.11c-0.08667,0.38667 -0.24667,0.76 -0.48,1.12c-0.23333,0.35333 -0.51,0.66667 -0.83,0.94c-0.32,0.28 -0.68333,0.5 -1.09,0.66c-0.40667,0.16 -0.84333,0.24 -1.31,0.24v0c-1.76,0 -3.09667,-0.55667 -4.01,-1.67c-0.91333,-1.11333 -1.37,-2.81667 -1.37,-5.11v0c0,-1.17333 0.16,-2.2 0.48,-3.08c0.32,-0.88 0.76667,-1.62 1.34,-2.22c0.58,-0.60667 1.28,-1.06 2.1,-1.36c0.81333,-0.30667 1.72,-0.46 2.72,-0.46v0c0.32,0 0.59,0.01 0.81,0.03c0.22,0.02 0.42333,0.04333 0.61,0.07c0.18667,0.02667 0.36667,0.07 0.54,0.13c0.16667,0.06 0.35667,0.12667 0.57,0.2v0v-4.69l-2.03,-0.22v-1.04c0.25333,-0.10667 0.59667,-0.20333 1.03,-0.29c0.43333,-0.08667 0.89,-0.17 1.37,-0.25c0.48,-0.08 0.95333,-0.15667 1.42,-0.23c0.46,-0.07333 0.84,-0.13667 1.14,-0.19v0h0.91v18.16l1.76,0.22v0.93c-0.24667,0.12667 -0.56667,0.24333 -0.96,0.35c-0.39333,0.10667 -0.80333,0.20333 -1.23,0.29c-0.42667,0.08667 -0.84,0.16333 -1.24,0.23c-0.4,0.06 -0.73333,0.10667 -1,0.14v0h-0.9zM151.55667,248.58333v0c0.62667,0 1.15333,-0.19333 1.58,-0.58c0.42667,-0.39333 0.73667,-1.06 0.93,-2v0v-7.18c-0.23333,-0.14 -0.52333,-0.25333 -0.87,-0.34c-0.34667,-0.09333 -0.77667,-0.14 -1.29,-0.14v0c-1.03333,0 -1.77,0.46667 -2.21,1.4c-0.44667,0.93333 -0.67,2.29 -0.67,4.07v0c0,1.44 0.19667,2.59667 0.59,3.47c0.38667,0.86667 1.03333,1.3 1.94,1.3zM180.33667,248.53333l1.3,-3.73h1.1c0.06667,0.28 0.13333,0.62 0.2,1.02c0.06,0.4 0.11333,0.82667 0.16,1.28c0.04,0.45333 0.07,0.90333 0.09,1.35c0.02,0.44667 0.03,0.84667 0.03,1.2v0c-0.62667,0.39333 -1.40667,0.67 -2.34,0.83c-0.93333,0.16 -1.88667,0.24 -2.86,0.24v0c-1.48,0 -2.82,-0.18333 -4.02,-0.55c-1.2,-0.36667 -2.22,-0.94333 -3.06,-1.73c-0.84667,-0.79333 -1.5,-1.8 -1.96,-3.02c-0.46667,-1.21333 -0.7,-2.67333 -0.7,-4.38v0c0,-1.69333 0.25333,-3.14667 0.76,-4.36c0.50667,-1.22 1.18667,-2.22 2.04,-3c0.85333,-0.78667 1.84667,-1.36 2.98,-1.72c1.12667,-0.36667 2.31333,-0.55 3.56,-0.55v0c1.17333,0 2.23333,0.08333 3.18,0.25c0.95333,0.17333 1.73333,0.4 2.34,0.68v0c0,0.28667 -0.01333,0.65333 -0.04,1.1c-0.02667,0.44 -0.07333,0.90667 -0.14,1.4c-0.06,0.48667 -0.13,0.96667 -0.21,1.44c-0.08,0.46667 -0.15667,0.86 -0.23,1.18v0h-1.12l-1.46,-4.02c-0.16,-0.09333 -0.42,-0.16667 -0.78,-0.22c-0.35333,-0.05333 -0.71667,-0.08 -1.09,-0.08v0c-0.72667,0 -1.41,0.14667 -2.05,0.44c-0.64,0.29333 -1.21,0.76 -1.71,1.4c-0.5,0.64 -0.89,1.46333 -1.17,2.47c-0.28667,1.00667 -0.43,2.21 -0.43,3.61v0c0,2.54667 0.50667,4.50333 1.52,5.87c1.01333,1.36667 2.39,2.05 4.13,2.05v0c0.5,0 0.92333,-0.04 1.27,-0.12c0.34667,-0.08 0.58333,-0.19 0.71,-0.33zM187.71667,244.26333l1.1,3.92c0.19333,0.2 0.46667,0.38333 0.82,0.55c0.36,0.16667 0.83333,0.25 1.42,0.25v0c0.97333,0 1.78667,-0.25333 2.44,-0.76c0.64667,-0.50667 0.97,-1.21333 0.97,-2.12v0c0,-0.65333 -0.21,-1.20333 -0.63,-1.65c-0.41333,-0.44667 -0.94,-0.85667 -1.58,-1.23c-0.64,-0.37333 -1.32667,-0.74 -2.06,-1.1c-0.72667,-0.36667 -1.41,-0.8 -2.05,-1.3c-0.64,-0.49333 -1.17,-1.08333 -1.59,-1.77c-0.41333,-0.68667 -0.62,-1.53667 -0.62,-2.55v0c0,-0.86667 0.16,-1.62 0.48,-2.26c0.32,-0.64 0.76,-1.17 1.32,-1.59c0.56,-0.42 1.22,-0.73 1.98,-0.93c0.76667,-0.20667 1.59333,-0.31 2.48,-0.31v0c1.08667,0 2.09667,0.07667 3.03,0.23c0.93333,0.14667 1.77333,0.38 2.52,0.7v0c-0.02,0.36 -0.05,0.77 -0.09,1.23c-0.04667,0.46 -0.10667,0.91667 -0.18,1.37c-0.06667,0.45333 -0.14,0.88 -0.22,1.28c-0.08,0.4 -0.15667,0.73333 -0.23,1v0h-1.09l-1.23,-3.65c-0.21333,-0.10667 -0.53,-0.20333 -0.95,-0.29c-0.41333,-0.09333 -0.84333,-0.14 -1.29,-0.14v0c-0.74667,0 -1.37667,0.19667 -1.89,0.59c-0.52,0.39333 -0.78,0.96333 -0.78,1.71v0c0,0.67333 0.21333,1.24667 0.64,1.72c0.42667,0.46667 0.96,0.89667 1.6,1.29c0.64,0.39333 1.34,0.78 2.1,1.16c0.75333,0.38 1.45,0.82 2.09,1.32c0.64,0.5 1.17333,1.08333 1.6,1.75c0.42667,0.66667 0.64,1.48667 0.64,2.46v0c0,1.78 -0.6,3.15333 -1.8,4.12c-1.2,0.97333 -2.96333,1.46 -5.29,1.46v0c-0.57333,0 -1.14667,-0.03667 -1.72,-0.11c-0.58,-0.07333 -1.12667,-0.17 -1.64,-0.29c-0.52,-0.12667 -0.98,-0.26 -1.38,-0.4c-0.4,-0.14667 -0.69667,-0.3 -0.89,-0.46v0c0.02,-0.40667 0.06333,-0.84667 0.13,-1.32c0.07333,-0.46667 0.15,-0.93667 0.23,-1.41c0.08,-0.47333 0.16333,-0.92333 0.25,-1.35c0.09333,-0.42667 0.18333,-0.8 0.27,-1.12v0zM202.59667,244.26333l1.1,3.92c0.19333,0.2 0.46667,0.38333 0.82,0.55c0.36,0.16667 0.83333,0.25 1.42,0.25v0c0.97333,0 1.78667,-0.25333 2.44,-0.76c0.64667,-0.50667 0.97,-1.21333 0.97,-2.12v0c0,-0.65333 -0.21,-1.20333 -0.63,-1.65c-0.41333,-0.44667 -0.94,-0.85667 -1.58,-1.23c-0.64,-0.37333 -1.32667,-0.74 -2.06,-1.1c-0.72667,-0.36667 -1.41,-0.8 -2.05,-1.3c-0.64,-0.49333 -1.17,-1.08333 -1.59,-1.77c-0.41333,-0.68667 -0.62,-1.53667 -0.62,-2.55v0c0,-0.86667 0.16,-1.62 0.48,-2.26c0.32,-0.64 0.76,-1.17 1.32,-1.59c0.56,-0.42 1.22,-0.73 1.98,-0.93c0.76667,-0.20667 1.59333,-0.31 2.48,-0.31v0c1.08667,0 2.09667,0.07667 3.03,0.23c0.93333,0.14667 1.77333,0.38 2.52,0.7v0c-0.02,0.36 -0.05,0.77 -0.09,1.23c-0.04667,0.46 -0.10667,0.91667 -0.18,1.37c-0.06667,0.45333 -0.14,0.88 -0.22,1.28c-0.08,0.4 -0.15667,0.73333 -0.23,1v0h-1.09l-1.23,-3.65c-0.21333,-0.10667 -0.53,-0.20333 -0.95,-0.29c-0.41333,-0.09333 -0.84333,-0.14 -1.29,-0.14v0c-0.74667,0 -1.37667,0.19667 -1.89,0.59c-0.52,0.39333 -0.78,0.96333 -0.78,1.71v0c0,0.67333 0.21333,1.24667 0.64,1.72c0.42667,0.46667 0.96,0.89667 1.6,1.29c0.64,0.39333 1.34,0.78 2.1,1.16c0.75333,0.38 1.45,0.82 2.09,1.32c0.64,0.5 1.17333,1.08333 1.6,1.75c0.42667,0.66667 0.64,1.48667 0.64,2.46v0c0,1.78 -0.6,3.15333 -1.8,4.12c-1.2,0.97333 -2.96333,1.46 -5.29,1.46v0c-0.57333,0 -1.14667,-0.03667 -1.72,-0.11c-0.58,-0.07333 -1.12667,-0.17 -1.64,-0.29c-0.52,-0.12667 -0.98,-0.26 -1.38,-0.4c-0.4,-0.14667 -0.69667,-0.3 -0.89,-0.46v0c0.02,-0.40667 0.06333,-0.84667 0.13,-1.32c0.07333,-0.46667 0.15,-0.93667 0.23,-1.41c0.08,-0.47333 0.16333,-0.92333 0.25,-1.35c0.09333,-0.42667 0.18333,-0.8 0.27,-1.12v0z"></path></g></g></svg>